<svg xmlns:xlink="http://www.w3.org/1999/xlink" xmlns="http://www.w3.org/2000/svg" fill="none" viewBox="0 0 200 200" height="200" width="200">
<g clip-path="url(#clip0_123_12)">
<path fill=" #6D31EDFF" d="M128.81 0H174V45.19C174 55.4831 169.911 65.3545 162.633 72.6328C155.355 79.9111 145.483 84 135.19 84H90V38.81C90 28.5169 94.0889 18.6455 101.367 11.3672C108.645 4.0889 118.517 0 128.81 0Z"></path>
<path fill="#FFFFFFFF" d="M124.118 28.2557H148.235V52.3726C148.235 57.8658 146.053 63.134 142.168 67.0182C138.284 70.9025 133.016 73.0846 127.523 73.0846H103.406V48.9677C103.406 43.4746 105.588 38.2064 109.472 34.3221C113.356 30.4379 118.625 28.2557 124.118 28.2557Z"></path>
<path fill=" #6D31EDFF" d="M84 84H49.57C45.6868 84 41.8416 83.2351 38.2541 81.7491C34.6665 80.2631 31.4067 78.085 28.6609 75.3391C25.915 72.5933 23.7369 69.3335 22.2509 65.7459C20.7649 62.1584 20 58.3132 20 54.43V20L54.43 20C62.2725 20 69.7937 23.1154 75.3391 28.6609C80.8846 34.2063 84 41.7275 84 49.57V84Z"></path>
<path fill="#FFFFFFFF" d="M72.3679 73.0846H56.6152C54.8386 73.0846 53.0793 72.7347 51.4379 72.0548C49.7964 71.3749 48.305 70.3784 47.0487 69.1221C45.7924 67.8658 44.7959 66.3743 44.116 64.7329C43.4361 63.0915 43.0861 61.3322 43.0861 59.5555V43.8029H58.8388C62.427 43.8029 65.8681 45.2282 68.4053 47.7654C70.9425 50.3026 72.3679 53.7438 72.3679 57.332V73.0846Z"></path>
<path fill="#15abffff" d="M38.81 90H84V135.19C84 145.483 79.9111 155.355 72.6328 162.633C65.3545 169.911 55.4831 174 45.19 174H0V128.81C0 118.517 4.0889 108.645 11.3672 101.367C18.6455 94.0889 28.5169 90 38.81 90Z"></path>
<path fill="#FFFFFFFF" d="M48.5328 102.384H72.3679V126.219C72.3679 131.648 70.2112 136.855 66.3724 140.694C62.5335 144.533 57.3269 146.689 51.8979 146.689H28.0627V122.854C28.0627 117.425 30.2194 112.219 34.0583 108.38C37.8972 104.541 43.1038 102.384 48.5328 102.384Z"></path>
<path fill="#15abffff" d="M200 200H140.82C127.342 200 114.415 194.646 104.885 185.115C95.3542 175.585 90 162.658 90 149.18L90 90L149.18 90C162.658 90 175.585 95.3542 185.115 104.885C194.646 114.415 200 127.342 200 140.82V200Z"></path>
<path fill="#FFFFFFFF" d="M167.241 166.22H132.898C125.076 166.22 117.575 163.113 112.044 157.582C106.513 152.051 103.406 144.55 103.406 136.728V102.384H137.749C145.571 102.384 153.072 105.492 158.603 111.022C164.134 116.553 167.241 124.055 167.241 131.876V166.22Z"></path>
</g>
<defs>
<clipPath id="clip0_123_12">
<rect fill="white" height="200" width="200"></rect>
</clipPath>
</defs>
</svg>